# xmcd
#
# Track frame offsets: 
#        151
#        7809
#        17487
#        23991
#        35650
#        45593
#        56919
#        64340
#        74113
#        81766
#        93306
#        101228
#        113596
#        120926
#        127290
#        135088
#        142745
#        149785
#        159181
#        164279
#        173337
#        189799
#        196698
#
# Disc length: 2778 seconds
#
# Revision: 0
# Processed by: cddbd v1.5.2PL0 Copyright (c) Steve Scherf et al.
# Submitted via: ExactAudioCopy v0.99pb3
#
DISCID=2e0ad817
DTITLE=Various Artist - Precious Memories Real Bluegrass Gospel Disk 2
DYEAR=2007
DGENRE=Bluegrass
TTITLE0=His Light Is Shining Down on Me - Lilie Mae
TTITLE1=He's Coming To Us Dead - Hylo Brown
TTITLE2=The Old Country Church - The House Brothers
TTITLE3=While The Ages Roll On - J. D. Jarvis
TTITLE4=I'm A Man Of Constant Sorrow - Reno and Harrell
TTITLE5=Somethings Got A Hold On Me - Red Smiley
TTITLE6=Wildwood Flower - Earl Taylor and Jim McCall
TTITLE7=When Paul and Silas Were In Jail - The House Brothers
TTITLE8=The Cry From The Cross - Red White
TTITLE9=Picture On The Wall - Hylo Brown
TTITLE10=No Depression - J. D. Jarvis
TTITLE11=Voice Of Our Savior - Frosty Mountain Boys
TTITLE12=When They Ring Those Golden Bells - Mac Wiseman
TTITLE13=Golden Slippers - Jim Greer
TTITLE14=I'm Using My Bible For A Road Map - The House Brothers
TTITLE15=Lonesome Valley - Rusty York
TTITLE16=I Won't Have To Cross Jordan Alone - J. D. Jarvis
TTITLE17=God Gave Noah The Rainbow Sign - Edith Roberts
TTITLE18=I Believe That Good Old Bible - Lee Moore
TTITLE19=Just A Rose Will Do - Hylo Brown
TTITLE20=Mansion Over The Hilltop - The Marksmen
TTITLE21=Matthew 24 - J. D. Jarvis
TTITLE22=Somebody Touched Me - Red Smiley
EXTD=
EXTT0=
EXTT1=
EXTT2=
EXTT3=
EXTT4=
EXTT5=
EXTT6=
EXTT7=
EXTT8=
EXTT9=
EXTT10=
EXTT11=
EXTT12=
EXTT13=
EXTT14=
EXTT15=
EXTT16=
EXTT17=
EXTT18=
EXTT19=
EXTT20=
EXTT21=
EXTT22=
PLAYORDER=
